<svg xmlns="http://www.w3.org/2000/svg" viewBox="0 0 512 512" style="height: 512px; width: 512px;"><defs><filter id="shadow-1" height="300%" width="300%" x="-100%" y="-100%"><feFlood flood-color="rgba(255, 255, 255, 1)" result="flood"></feFlood><feComposite in="flood" in2="SourceGraphic" operator="atop" result="composite"></feComposite><feGaussianBlur in="composite" stdDeviation="15" result="blur"></feGaussianBlur><feOffset dx="0" dy="0" result="offset"></feOffset><feComposite in="SourceGraphic" in2="offset" operator="over"></feComposite></filter><linearGradient x1="0" x2="1" y1="0" y2="1" id="delapouite-calculator-gradient-1"><stop offset="0%" stop-color="#4a4a4a" stop-opacity="1"></stop><stop offset="100%" stop-color="#9b9b9b" stop-opacity="1"></stop></linearGradient></defs><g class="" transform="translate(0,0)" style=""><path d="M95 25v462h322V25H95zm193 18h80v18h-80V43zM114 83h284v84H114V83zm22 46v18h88v-18h-88zm-22 54h58v58h-58v-58zm76 0h58v58h-58v-58zm74 0h58v58h-58v-58zm76 0h58v58h-58v-58zm-208 18v22h22v-22h-22zm76 0v22h22v-22h-22zm74 0v22h22v-22h-22zm76 0v22h22v-22h-22zm-244 56h58v58h-58v-58zm76 0h58v58h-58v-58zm74 0h58v58h-58v-58zm76 0h58v58h-58v-58zm-208 18v22h22v-22h-22zm76 0v22h22v-22h-22zm74 0v22h22v-22h-22zm76 0v22h22v-22h-22zm-244 56h58v58h-58v-58zm76 0h58v58h-58v-58zm74 0h58v58h-58v-58zm76 0h58v132h-58V331zm-208 18v22h22v-22h-22zm76 0v22h22v-22h-22zm74 0v22h22v-22h-22zm76 0v96h22v-96h-22zm-244 56h58v58h-58v-58zm76 0h58v58h-58v-58zm74 0h58v58h-58v-58zm-132 18v22h22v-22h-22zm76 0v22h22v-22h-22zm74 0v22h22v-22h-22z" fill="url(#delapouite-calculator-gradient-1)" filter="url(#shadow-1)"></path></g></svg>