<svg xmlns="http://www.w3.org/2000/svg" viewBox="0 0 512 512" style="height: 512px; width: 512px;"><defs><linearGradient x1="0" x2="0" y1="0" y2="1" id="gradient-6"><stop offset="0%" stop-color="#e50d22" stop-opacity="1"></stop><stop offset="100%" stop-color="#8d7f84" stop-opacity="1"></stop></linearGradient><linearGradient x1="0" x2="0" y1="0" y2="1" id="gradient-7"><stop offset="0%" stop-color="#e50d22" stop-opacity="1"></stop><stop offset="100%" stop-color="#8d7f84" stop-opacity="1"></stop></linearGradient><linearGradient x1="0" x2="0" y1="0" y2="1" id="gradient-8"><stop offset="0%" stop-color="#e50d22" stop-opacity="1"></stop><stop offset="100%" stop-color="#8d7f84" stop-opacity="1"></stop></linearGradient><linearGradient x1="0" x2="0" y1="0" y2="1" id="gradient-9"><stop offset="0%" stop-color="#e50d22" stop-opacity="1"></stop><stop offset="100%" stop-color="#8d7f84" stop-opacity="1"></stop></linearGradient><linearGradient x1="0" x2="0" y1="0" y2="1" id="gradient-10"><stop offset="0%" stop-color="#e50d22" stop-opacity="1"></stop><stop offset="100%" stop-color="#8d7f84" stop-opacity="1"></stop></linearGradient><linearGradient x1="0" x2="0" y1="0" y2="1" id="gradient-11"><stop offset="0%" stop-color="#e50d22" stop-opacity="1"></stop><stop offset="100%" stop-color="#8d7f84" stop-opacity="1"></stop></linearGradient><linearGradient x1="0" x2="0" y1="0" y2="1" id="gradient-12"><stop offset="0%" stop-color="#e50d22" stop-opacity="1"></stop><stop offset="100%" stop-color="#8d7f84" stop-opacity="1"></stop></linearGradient><linearGradient x1="0" x2="0" y1="0" y2="1" id="gradient-13"><stop offset="0%" stop-color="#e50d22" stop-opacity="1"></stop><stop offset="100%" stop-color="#8d7f84" stop-opacity="1"></stop></linearGradient><linearGradient x1="0" x2="0" y1="0" y2="1" id="gradient-14"><stop offset="0%" stop-color="#e50d22" stop-opacity="1"></stop><stop offset="100%" stop-color="#8d7f84" stop-opacity="1"></stop></linearGradient><linearGradient x1="0" x2="0" y1="0" y2="1" id="gradient-15"><stop offset="0%" stop-color="#e50d22" stop-opacity="1"></stop><stop offset="100%" stop-color="#8d7f84" stop-opacity="1"></stop></linearGradient><linearGradient x1="0" x2="0" y1="0" y2="1" id="gradient-16"><stop offset="0%" stop-color="#e50d22" stop-opacity="1"></stop><stop offset="100%" stop-color="#8d7f84" stop-opacity="1"></stop></linearGradient><linearGradient x1="0" x2="0" y1="0" y2="1" id="gradient-17"><stop offset="0%" stop-color="#e50d22" stop-opacity="1"></stop><stop offset="100%" stop-color="#8d7f84" stop-opacity="1"></stop></linearGradient><linearGradient x1="0" x2="0" y1="0" y2="1" id="gradient-18"><stop offset="0%" stop-color="#e50d22" stop-opacity="1"></stop><stop offset="100%" stop-color="#8d7f84" stop-opacity="1"></stop></linearGradient><linearGradient x1="0" x2="0" y1="0" y2="1" id="gradient-19"><stop offset="0%" stop-color="#e50d22" stop-opacity="1"></stop><stop offset="100%" stop-color="#8d7f84" stop-opacity="1"></stop></linearGradient><linearGradient x1="0" x2="0" y1="0" y2="1" id="gradient-20"><stop offset="0%" stop-color="#e50d22" stop-opacity="1"></stop><stop offset="100%" stop-color="#8d7f84" stop-opacity="1"></stop></linearGradient></defs><path d="M0 0h512v512H0z" fill="#ffffff" fill-opacity="0"></path><g class="" transform="translate(0,0)" style="touch-action: none;"><path d="M124.812 388.907a60.718 60.718 0 0 0 16.564 11.588L107.28 435.07a48.756 48.756 0 0 0-28.35-28.006l34.16-34.576a61.093 61.093 0 0 0 11.722 16.42zm209.598-276.44c-32.754 33.14-57.813 79.127-103.008 124.853-9.13 9.245-40.292 37.355-58.303 53.555l49.223 48.64c15.98-18.24 43.727-49.744 52.858-58.978 45.154-45.726 90.828-71.39 123.57-104.477C452.683 121.485 481 28.492 481 28.492s-92.67 29.4-146.59 83.976zM83.656 430.594a30.92 30.92 0 1 0 .26 43.727 30.817 30.817 0 0 0-.26-43.727zm91.13-40.603c11.16 0 20.822-2.81 24.497-6.56l20.885-21.103-69.88-69.047-20.823 21.135c-7.964 8.068-11.233 43.06 7.85 61.905 10.12 10.026 24.79 13.66 37.47 13.66z" fill="#67030f" fill-opacity="1" transform="translate(25.6, 25.6) scale(0.9, 0.9) rotate(0, 256, 256)"></path></g></svg>