<svg xmlns="http://www.w3.org/2000/svg" viewBox="0 0 512 512" style="height: 512px; width: 512px;"><defs><linearGradient x1="0" x2="0" y1="0" y2="1" id="gradient-6"><stop offset="0%" stop-color="#e50d22" stop-opacity="1"></stop><stop offset="100%" stop-color="#8d7f84" stop-opacity="1"></stop></linearGradient><linearGradient x1="0" x2="0" y1="0" y2="1" id="gradient-7"><stop offset="0%" stop-color="#e50d22" stop-opacity="1"></stop><stop offset="100%" stop-color="#8d7f84" stop-opacity="1"></stop></linearGradient><linearGradient x1="0" x2="0" y1="0" y2="1" id="gradient-8"><stop offset="0%" stop-color="#e50d22" stop-opacity="1"></stop><stop offset="100%" stop-color="#8d7f84" stop-opacity="1"></stop></linearGradient><linearGradient x1="0" x2="0" y1="0" y2="1" id="gradient-9"><stop offset="0%" stop-color="#e50d22" stop-opacity="1"></stop><stop offset="100%" stop-color="#8d7f84" stop-opacity="1"></stop></linearGradient><linearGradient x1="0" x2="0" y1="0" y2="1" id="gradient-10"><stop offset="0%" stop-color="#e50d22" stop-opacity="1"></stop><stop offset="100%" stop-color="#8d7f84" stop-opacity="1"></stop></linearGradient><linearGradient x1="0" x2="0" y1="0" y2="1" id="gradient-11"><stop offset="0%" stop-color="#e50d22" stop-opacity="1"></stop><stop offset="100%" stop-color="#8d7f84" stop-opacity="1"></stop></linearGradient><linearGradient x1="0" x2="0" y1="0" y2="1" id="gradient-12"><stop offset="0%" stop-color="#e50d22" stop-opacity="1"></stop><stop offset="100%" stop-color="#8d7f84" stop-opacity="1"></stop></linearGradient><linearGradient x1="0" x2="0" y1="0" y2="1" id="gradient-13"><stop offset="0%" stop-color="#e50d22" stop-opacity="1"></stop><stop offset="100%" stop-color="#8d7f84" stop-opacity="1"></stop></linearGradient><linearGradient x1="0" x2="0" y1="0" y2="1" id="gradient-14"><stop offset="0%" stop-color="#e50d22" stop-opacity="1"></stop><stop offset="100%" stop-color="#8d7f84" stop-opacity="1"></stop></linearGradient><linearGradient x1="0" x2="0" y1="0" y2="1" id="gradient-15"><stop offset="0%" stop-color="#e50d22" stop-opacity="1"></stop><stop offset="100%" stop-color="#8d7f84" stop-opacity="1"></stop></linearGradient><linearGradient x1="0" x2="0" y1="0" y2="1" id="gradient-16"><stop offset="0%" stop-color="#e50d22" stop-opacity="1"></stop><stop offset="100%" stop-color="#8d7f84" stop-opacity="1"></stop></linearGradient><linearGradient x1="0" x2="0" y1="0" y2="1" id="gradient-17"><stop offset="0%" stop-color="#e50d22" stop-opacity="1"></stop><stop offset="100%" stop-color="#8d7f84" stop-opacity="1"></stop></linearGradient><linearGradient x1="0" x2="0" y1="0" y2="1" id="gradient-18"><stop offset="0%" stop-color="#e50d22" stop-opacity="1"></stop><stop offset="100%" stop-color="#8d7f84" stop-opacity="1"></stop></linearGradient><linearGradient x1="0" x2="0" y1="0" y2="1" id="gradient-19"><stop offset="0%" stop-color="#e50d22" stop-opacity="1"></stop><stop offset="100%" stop-color="#8d7f84" stop-opacity="1"></stop></linearGradient><linearGradient x1="0" x2="0" y1="0" y2="1" id="gradient-20"><stop offset="0%" stop-color="#e50d22" stop-opacity="1"></stop><stop offset="100%" stop-color="#8d7f84" stop-opacity="1"></stop></linearGradient></defs><path d="M0 0h512v512H0z" fill="#ffffff" fill-opacity="0"></path><g class="" transform="translate(0,0)" style="touch-action: none;"><path d="M256 23c-62.377 0-118.824 5.375-160.277 14.258-20.727 4.441-37.674 9.69-50.188 16.03-26.54 16.094-31.144 53.2-21.918 77.99C69.915 217.435 138.57 281.384 215 340.321V489c25.848-.604 80.089-14.04 82-41V340.322c67.639-60.819 155.483-122.156 191.383-209.045 5.479-17.026 3.503-55.854-6.424-67.166-4.04-4.23-9.237-7.654-15.494-10.824-12.514-6.34-29.461-11.588-50.188-16.03C374.824 28.376 318.377 23 256 23zm0 18c61.335 0 116.887 5.37 156.506 13.86C422.354 57.71 470.826 69.626 471 80c.175 10.464-46.091 22.442-58.494 25.14C372.886 113.63 317.335 119 256 119c-61.335 0-116.887-5.37-156.506-13.86C89.646 102.29 40.887 89.064 41 80c.12-9.68 46.092-22.442 58.494-25.14C139.114 46.37 194.665 41 256 41z" fill="#67030f" fill-opacity="1" transform="translate(25.6, 25.6) scale(0.9, 0.9) rotate(0, 256, 256)"></path></g></svg>