<svg xmlns="http://www.w3.org/2000/svg" viewBox="0 0 512 512" style="height: 512px; width: 512px;"><g class="" transform="translate(0,-50)" style=""><g><path d="M257.75 16.03C223.943 15.044 196.003 42.179 196 76C196 122.188 246 151.056 286 127.962C304.564 117.244 316 97.436 316 76C315.998 43.546 290.19 16.977 257.75 16.03Z" class="" fill="#417505" fill-opacity="0"></path><path d="M250.72 166C226 166.11 226 167.875 226 196L226 406L166 406L256 496L346 406L286 406L286 196C286 166 286 166 256 166C254.125 166 252.367 165.993 250.72 166Z" class="selected" fill="#4a90e2" fill-opacity="1"></path></g></g></svg>