<svg xmlns="http://www.w3.org/2000/svg" viewBox="0 0 512 512" style="height: 512px; width: 512px;"><defs><linearGradient x1="0" x2="0" y1="0" y2="1" id="gradient-1"><stop offset="0%" stop-color="#67030f" stop-opacity="1"></stop><stop offset="100%" stop-color="#67030f" stop-opacity="1"></stop></linearGradient><linearGradient x1="0" x2="0" y1="0" y2="1" id="gradient-2"><stop offset="0%" stop-color="#e50d22" stop-opacity="1"></stop><stop offset="100%" stop-color="#8d7f84" stop-opacity="1"></stop></linearGradient><linearGradient x1="0" x2="0" y1="0" y2="1" id="gradient-3"><stop offset="0%" stop-color="#e50d22" stop-opacity="1"></stop><stop offset="100%" stop-color="#8d7f84" stop-opacity="1"></stop></linearGradient><linearGradient x1="0" x2="0" y1="0" y2="1" id="gradient-4"><stop offset="0%" stop-color="#e50d22" stop-opacity="1"></stop><stop offset="100%" stop-color="#8d7f84" stop-opacity="1"></stop></linearGradient><linearGradient x1="0" x2="0" y1="0" y2="1" id="gradient-5"><stop offset="0%" stop-color="#e50d22" stop-opacity="1"></stop><stop offset="100%" stop-color="#8d7f84" stop-opacity="1"></stop></linearGradient><linearGradient x1="0" x2="0" y1="0" y2="1" id="gradient-6"><stop offset="0%" stop-color="#e50d22" stop-opacity="1"></stop><stop offset="100%" stop-color="#8d7f84" stop-opacity="1"></stop></linearGradient><linearGradient x1="0" x2="0" y1="0" y2="1" id="gradient-7"><stop offset="0%" stop-color="#e50d22" stop-opacity="1"></stop><stop offset="100%" stop-color="#8d7f84" stop-opacity="1"></stop></linearGradient><linearGradient x1="0" x2="0" y1="0" y2="1" id="gradient-8"><stop offset="0%" stop-color="#e50d22" stop-opacity="1"></stop><stop offset="100%" stop-color="#8d7f84" stop-opacity="1"></stop></linearGradient><linearGradient x1="0" x2="0" y1="0" y2="1" id="gradient-9"><stop offset="0%" stop-color="#e50d22" stop-opacity="1"></stop><stop offset="100%" stop-color="#8d7f84" stop-opacity="1"></stop></linearGradient><linearGradient x1="0" x2="0" y1="0" y2="1" id="gradient-10"><stop offset="0%" stop-color="#e50d22" stop-opacity="1"></stop><stop offset="100%" stop-color="#8d7f84" stop-opacity="1"></stop></linearGradient><linearGradient x1="0" x2="0" y1="0" y2="1" id="gradient-11"><stop offset="0%" stop-color="#e50d22" stop-opacity="1"></stop><stop offset="100%" stop-color="#8d7f84" stop-opacity="1"></stop></linearGradient><linearGradient x1="0" x2="0" y1="0" y2="1" id="gradient-12"><stop offset="0%" stop-color="#e50d22" stop-opacity="1"></stop><stop offset="100%" stop-color="#8d7f84" stop-opacity="1"></stop></linearGradient><linearGradient x1="0" x2="0" y1="0" y2="1" id="gradient-13"><stop offset="0%" stop-color="#e50d22" stop-opacity="1"></stop><stop offset="100%" stop-color="#8d7f84" stop-opacity="1"></stop></linearGradient><linearGradient x1="0" x2="0" y1="0" y2="1" id="gradient-14"><stop offset="0%" stop-color="#e50d22" stop-opacity="1"></stop><stop offset="100%" stop-color="#8d7f84" stop-opacity="1"></stop></linearGradient><linearGradient x1="0" x2="0" y1="0" y2="1" id="gradient-15"><stop offset="0%" stop-color="#e50d22" stop-opacity="1"></stop><stop offset="100%" stop-color="#8d7f84" stop-opacity="1"></stop></linearGradient><linearGradient x1="0" x2="0" y1="0" y2="1" id="gradient-16"><stop offset="0%" stop-color="#e50d22" stop-opacity="1"></stop><stop offset="100%" stop-color="#8d7f84" stop-opacity="1"></stop></linearGradient><linearGradient x1="0" x2="0" y1="0" y2="1" id="gradient-17"><stop offset="0%" stop-color="#e50d22" stop-opacity="1"></stop><stop offset="100%" stop-color="#8d7f84" stop-opacity="1"></stop></linearGradient><linearGradient x1="0" x2="0" y1="0" y2="1" id="gradient-18"><stop offset="0%" stop-color="#e50d22" stop-opacity="1"></stop><stop offset="100%" stop-color="#8d7f84" stop-opacity="1"></stop></linearGradient><linearGradient x1="0" x2="0" y1="0" y2="1" id="gradient-19"><stop offset="0%" stop-color="#e50d22" stop-opacity="1"></stop><stop offset="100%" stop-color="#8d7f84" stop-opacity="1"></stop></linearGradient><linearGradient x1="0" x2="0" y1="0" y2="1" id="gradient-20"><stop offset="0%" stop-color="#e50d22" stop-opacity="1"></stop><stop offset="100%" stop-color="#8d7f84" stop-opacity="1"></stop></linearGradient></defs><path d="M0 0h512v512H0z" fill="#ffffff" fill-opacity="0"></path><g class="" transform="translate(0,0)" style="touch-action: none;"><path d="M256 22.017l-69.427 102.007-123.038-9.32L100 232.584l-84 90.384 114.898 44.987 18.292 122.028L256 428.2l106.81 61.783 18.292-122.028L496 322.968l-84-90.385 36.465-117.88-123.038 9.32z" fill="url(#gradient-1)" transform="translate(25.6, 25.6) scale(0.9, 0.9) rotate(0, 256, 256)"></path></g></svg>