<svg xmlns="http://www.w3.org/2000/svg" viewBox="0 0 512 512" style="height: 512px; width: 512px;"><defs><linearGradient x1="0" x2="0" y1="0" y2="1" id="gradient-1"><stop offset="0%" stop-color="#a7967b" stop-opacity="1"></stop><stop offset="100%" stop-color="#5c3b1e" stop-opacity="1"></stop></linearGradient><linearGradient x1="0" x2="0" y1="0" y2="1" id="gradient-2"><stop offset="0%" stop-color="#e50d22" stop-opacity="1"></stop><stop offset="100%" stop-color="#8d7f84" stop-opacity="1"></stop></linearGradient><linearGradient x1="0" x2="0" y1="0" y2="1" id="gradient-3"><stop offset="0%" stop-color="#e50d22" stop-opacity="1"></stop><stop offset="100%" stop-color="#8d7f84" stop-opacity="1"></stop></linearGradient><linearGradient x1="0" x2="0" y1="0" y2="1" id="gradient-4"><stop offset="0%" stop-color="#e50d22" stop-opacity="1"></stop><stop offset="100%" stop-color="#8d7f84" stop-opacity="1"></stop></linearGradient><linearGradient x1="0" x2="0" y1="0" y2="1" id="gradient-5"><stop offset="0%" stop-color="#e50d22" stop-opacity="1"></stop><stop offset="100%" stop-color="#8d7f84" stop-opacity="1"></stop></linearGradient><linearGradient x1="0" x2="0" y1="0" y2="1" id="gradient-6"><stop offset="0%" stop-color="#e50d22" stop-opacity="1"></stop><stop offset="100%" stop-color="#8d7f84" stop-opacity="1"></stop></linearGradient><linearGradient x1="0" x2="0" y1="0" y2="1" id="gradient-7"><stop offset="0%" stop-color="#e50d22" stop-opacity="1"></stop><stop offset="100%" stop-color="#8d7f84" stop-opacity="1"></stop></linearGradient><linearGradient x1="0" x2="0" y1="0" y2="1" id="gradient-8"><stop offset="0%" stop-color="#e50d22" stop-opacity="1"></stop><stop offset="100%" stop-color="#8d7f84" stop-opacity="1"></stop></linearGradient><linearGradient x1="0" x2="0" y1="0" y2="1" id="gradient-9"><stop offset="0%" stop-color="#e50d22" stop-opacity="1"></stop><stop offset="100%" stop-color="#8d7f84" stop-opacity="1"></stop></linearGradient><linearGradient x1="0" x2="0" y1="0" y2="1" id="gradient-10"><stop offset="0%" stop-color="#e50d22" stop-opacity="1"></stop><stop offset="100%" stop-color="#8d7f84" stop-opacity="1"></stop></linearGradient><linearGradient x1="0" x2="0" y1="0" y2="1" id="gradient-11"><stop offset="0%" stop-color="#e50d22" stop-opacity="1"></stop><stop offset="100%" stop-color="#8d7f84" stop-opacity="1"></stop></linearGradient><linearGradient x1="0" x2="0" y1="0" y2="1" id="gradient-12"><stop offset="0%" stop-color="#e50d22" stop-opacity="1"></stop><stop offset="100%" stop-color="#8d7f84" stop-opacity="1"></stop></linearGradient><linearGradient x1="0" x2="0" y1="0" y2="1" id="gradient-13"><stop offset="0%" stop-color="#e50d22" stop-opacity="1"></stop><stop offset="100%" stop-color="#8d7f84" stop-opacity="1"></stop></linearGradient><linearGradient x1="0" x2="0" y1="0" y2="1" id="gradient-14"><stop offset="0%" stop-color="#e50d22" stop-opacity="1"></stop><stop offset="100%" stop-color="#8d7f84" stop-opacity="1"></stop></linearGradient><linearGradient x1="0" x2="0" y1="0" y2="1" id="gradient-15"><stop offset="0%" stop-color="#e50d22" stop-opacity="1"></stop><stop offset="100%" stop-color="#8d7f84" stop-opacity="1"></stop></linearGradient><linearGradient x1="0" x2="0" y1="0" y2="1" id="gradient-16"><stop offset="0%" stop-color="#e50d22" stop-opacity="1"></stop><stop offset="100%" stop-color="#8d7f84" stop-opacity="1"></stop></linearGradient><linearGradient x1="0" x2="0" y1="0" y2="1" id="gradient-17"><stop offset="0%" stop-color="#e50d22" stop-opacity="1"></stop><stop offset="100%" stop-color="#8d7f84" stop-opacity="1"></stop></linearGradient><linearGradient x1="0" x2="0" y1="0" y2="1" id="gradient-18"><stop offset="0%" stop-color="#e50d22" stop-opacity="1"></stop><stop offset="100%" stop-color="#8d7f84" stop-opacity="1"></stop></linearGradient><linearGradient x1="0" x2="0" y1="0" y2="1" id="gradient-19"><stop offset="0%" stop-color="#e50d22" stop-opacity="1"></stop><stop offset="100%" stop-color="#8d7f84" stop-opacity="1"></stop></linearGradient><linearGradient x1="0" x2="0" y1="0" y2="1" id="gradient-20"><stop offset="0%" stop-color="#e50d22" stop-opacity="1"></stop><stop offset="100%" stop-color="#8d7f84" stop-opacity="1"></stop></linearGradient></defs><path d="M0 0h512v512H0z" fill="#ffffff" fill-opacity="0"></path><g class="" transform="translate(0,0)" style="touch-action: none;"><path d="M279 25v30h-46V25h46zm178 35.396c3.485 1.262 7.267 2.717 11.195 4.55 5.553 2.589 10.945 5.739 14.409 8.742C486.067 76.69 487 78.936 487 80c0 1.063-.933 3.31-4.396 6.313-3.464 3.002-8.856 6.152-14.409 8.742-3.928 1.832-7.71 3.287-11.195 4.549V60.396zm-402 0v39.208c-3.485-1.262-7.267-2.717-11.195-4.55-5.553-2.589-10.945-5.739-14.409-8.742C25.933 83.31 25 81.064 25 80c0-1.063.933-3.31 4.396-6.313 3.464-3.002 8.856-6.152 14.409-8.742 3.928-1.832 7.71-3.287 11.195-4.549zM439 73v14h-46V73h46zm-64 0v291.578L256 498.453 137 364.578V73h238zm-256 0v14H73V73h46zm210 23h-18v252.844l-55 68.75-55-68.75V96h-18v259.156l73 91.25 73-91.25V96z" fill="url(#gradient-1)" transform="translate(128, 128) scale(0.5, 0.5) rotate(0, 256, 256)"></path></g></svg>