<svg xmlns="http://www.w3.org/2000/svg" viewBox="0 0 512 512" style="height: 512px; width: 512px;"><defs><radialGradient id="gradient-1"><stop offset="0%" stop-color="#9b9b9b" stop-opacity="1"></stop><stop offset="100%" stop-color="#b57204" stop-opacity="1"></stop></radialGradient><linearGradient x1="0" x2="0" y1="0" y2="1" id="gradient-2"><stop offset="0%" stop-color="#e50d22" stop-opacity="1"></stop><stop offset="100%" stop-color="#8d7f84" stop-opacity="1"></stop></linearGradient><linearGradient x1="0" x2="0" y1="0" y2="1" id="gradient-3"><stop offset="0%" stop-color="#e50d22" stop-opacity="1"></stop><stop offset="100%" stop-color="#8d7f84" stop-opacity="1"></stop></linearGradient><linearGradient x1="0" x2="0" y1="0" y2="1" id="gradient-4"><stop offset="0%" stop-color="#e50d22" stop-opacity="1"></stop><stop offset="100%" stop-color="#8d7f84" stop-opacity="1"></stop></linearGradient><linearGradient x1="0" x2="0" y1="0" y2="1" id="gradient-5"><stop offset="0%" stop-color="#e50d22" stop-opacity="1"></stop><stop offset="100%" stop-color="#8d7f84" stop-opacity="1"></stop></linearGradient><linearGradient x1="0" x2="0" y1="0" y2="1" id="gradient-6"><stop offset="0%" stop-color="#e50d22" stop-opacity="1"></stop><stop offset="100%" stop-color="#8d7f84" stop-opacity="1"></stop></linearGradient><linearGradient x1="0" x2="0" y1="0" y2="1" id="gradient-7"><stop offset="0%" stop-color="#e50d22" stop-opacity="1"></stop><stop offset="100%" stop-color="#8d7f84" stop-opacity="1"></stop></linearGradient><linearGradient x1="0" x2="0" y1="0" y2="1" id="gradient-8"><stop offset="0%" stop-color="#e50d22" stop-opacity="1"></stop><stop offset="100%" stop-color="#8d7f84" stop-opacity="1"></stop></linearGradient><linearGradient x1="0" x2="0" y1="0" y2="1" id="gradient-9"><stop offset="0%" stop-color="#e50d22" stop-opacity="1"></stop><stop offset="100%" stop-color="#8d7f84" stop-opacity="1"></stop></linearGradient><linearGradient x1="0" x2="0" y1="0" y2="1" id="gradient-10"><stop offset="0%" stop-color="#e50d22" stop-opacity="1"></stop><stop offset="100%" stop-color="#8d7f84" stop-opacity="1"></stop></linearGradient><linearGradient x1="0" x2="0" y1="0" y2="1" id="gradient-11"><stop offset="0%" stop-color="#e50d22" stop-opacity="1"></stop><stop offset="100%" stop-color="#8d7f84" stop-opacity="1"></stop></linearGradient><linearGradient x1="0" x2="0" y1="0" y2="1" id="gradient-12"><stop offset="0%" stop-color="#e50d22" stop-opacity="1"></stop><stop offset="100%" stop-color="#8d7f84" stop-opacity="1"></stop></linearGradient><linearGradient x1="0" x2="0" y1="0" y2="1" id="gradient-13"><stop offset="0%" stop-color="#e50d22" stop-opacity="1"></stop><stop offset="100%" stop-color="#8d7f84" stop-opacity="1"></stop></linearGradient><linearGradient x1="0" x2="0" y1="0" y2="1" id="gradient-14"><stop offset="0%" stop-color="#e50d22" stop-opacity="1"></stop><stop offset="100%" stop-color="#8d7f84" stop-opacity="1"></stop></linearGradient><linearGradient x1="0" x2="0" y1="0" y2="1" id="gradient-15"><stop offset="0%" stop-color="#e50d22" stop-opacity="1"></stop><stop offset="100%" stop-color="#8d7f84" stop-opacity="1"></stop></linearGradient><linearGradient x1="0" x2="0" y1="0" y2="1" id="gradient-16"><stop offset="0%" stop-color="#e50d22" stop-opacity="1"></stop><stop offset="100%" stop-color="#8d7f84" stop-opacity="1"></stop></linearGradient><linearGradient x1="0" x2="0" y1="0" y2="1" id="gradient-17"><stop offset="0%" stop-color="#e50d22" stop-opacity="1"></stop><stop offset="100%" stop-color="#8d7f84" stop-opacity="1"></stop></linearGradient><linearGradient x1="0" x2="0" y1="0" y2="1" id="gradient-18"><stop offset="0%" stop-color="#e50d22" stop-opacity="1"></stop><stop offset="100%" stop-color="#8d7f84" stop-opacity="1"></stop></linearGradient><linearGradient x1="0" x2="0" y1="0" y2="1" id="gradient-19"><stop offset="0%" stop-color="#e50d22" stop-opacity="1"></stop><stop offset="100%" stop-color="#8d7f84" stop-opacity="1"></stop></linearGradient><linearGradient x1="0" x2="0" y1="0" y2="1" id="gradient-20"><stop offset="0%" stop-color="#e50d22" stop-opacity="1"></stop><stop offset="100%" stop-color="#8d7f84" stop-opacity="1"></stop></linearGradient></defs><path d="M0 0h512v512H0z" fill="#ffffff" fill-opacity="0"></path><g class="" transform="translate(0,0)" style="touch-action: none;"><path d="M256 126.97c-86.364 0-225.564 39.103-234.6 109.96-9.828 90.817 77.986 124.365 144.875 128.814v-78.592c-52.133 0-70.272-22.63-66.675-50.222 7.275-55.81 100.12-63.614 156.4-63.614s149.125 7.805 156.4 63.614c3.597 27.59-14.542 50.222-66.675 50.222v78.592c66.89-4.45 154.703-37.997 144.875-128.814-5.604-78.746-148.236-109.96-234.6-109.96zm71.656 152.257l-143.312.02V384.87l143.312.157V279.226zm-17.642 21.507v23.606h-82.29v19.592h82.29v21.523h-104.12V300.8h32.33l71.79-.066z" fill="url(#gradient-1)" transform="translate(25.6, 25.6) scale(0.9, 0.9) rotate(0, 256, 256)"></path></g></svg>